<svg width="32" height="32" viewBox="0 0 32 32" fill="none" xmlns="http://www.w3.org/2000/svg">
<path d="M20.2857 22.4286V31L24.5714 27.7857L28.8571 31V22.4286M31 10.6429V3.14286C31 1.95939 30.0406 1 28.8571 1H3.14286C1.95939 1 1 1.95939 1 3.14286V28.8571C1 30.0406 1.95939 31 3.14286 31H17.0714M6.35714 9.57143H17.0714M6.35714 16H12.7857M24.5714 24.5714C21.021 24.5714 18.1429 21.6933 18.1429 18.1429C18.1429 14.5925 21.021 11.7143 24.5714 11.7143C28.1218 11.7143 31 14.5925 31 18.1429C31 21.6933 28.1218 24.5714 24.5714 24.5714Z" stroke="#226CF5" stroke-width="2" stroke-linejoin="round"/>
</svg>
