<svg width="105" height="62" viewBox="0 0 105 62" fill="none" xmlns="http://www.w3.org/2000/svg">
<path d="M52.5 9C23.5051 9 0 32.5051 0 61.5H105C105 32.5051 81.4949 9 52.5 9Z" fill="#FDC98D"/>
<path d="M33.5 21.5C33.5 32.5457 42.4543 41.5 53.5 41.5C64.5457 41.5 73.5 32.5457 73.5 21.5C73.5 10.4543 64.5457 1.5 53.5 1.5C42.4543 1.5 33.5 10.4543 33.5 21.5Z" stroke="#0E1B2C" stroke-width="2"/>
<path d="M42.0714 21.5C42.0714 27.8118 47.1882 32.9286 53.5 32.9286C59.8118 32.9286 64.9286 27.8118 64.9286 21.5C64.9286 15.1882 59.8118 10.0714 53.5 10.0714C47.1882 10.0714 42.0714 15.1882 42.0714 21.5Z" stroke="#0E1B2C" stroke-width="2"/>
<path d="M50.6429 21.5C50.6429 23.078 51.922 24.3571 53.5 24.3571C55.078 24.3571 56.3571 23.078 56.3571 21.5C56.3571 19.922 55.078 18.6429 53.5 18.6429C51.922 18.6429 50.6429 19.922 50.6429 21.5Z" stroke="#0E1B2C" stroke-width="2"/>
</svg>
