<svg width="28" height="32" viewBox="0 0 28 32" fill="none" xmlns="http://www.w3.org/2000/svg">
<path d="M9.57143 21.3571V18.1429M9.57143 18.1429V7.42857C9.57143 6.2451 10.5308 5.28571 11.7143 5.28571C12.8978 5.28571 13.8571 6.2451 13.8571 7.42857V16H21.042C22.9913 16 24.5714 17.5802 24.5714 19.5294V21.3571C24.5714 26.6827 20.2542 31 14.9286 31H13.8571C9.12327 31 5.28571 27.1624 5.28571 22.4286C5.28571 20.0616 7.20449 18.1429 9.57143 18.1429ZM17.0714 11.7143H21.3571C24.3158 11.7143 26.7143 9.31581 26.7143 6.35714C26.7143 3.39847 24.3158 1 21.3571 1H6.35714C3.39847 1 1 3.39847 1 6.35714C1 9.31581 3.39847 11.7143 6.35714 11.7143" stroke="#FDAF4D" stroke-width="2"/>
</svg>
