<svg width="206" height="45" viewBox="0 0 206 45" fill="none" xmlns="http://www.w3.org/2000/svg">
<path d="M119.633 4.45091C119.059 4.83301 118.579 5.41279 118.192 6.19026C118.769 3.61024 119.912 0.932155 122.147 0.120841C122.527 0.0387056 122.933 0 123.421 0C124.156 0 124.769 0.208444 125.259 0.625334C125.774 1.04222 126.032 1.53268 126.032 2.09671C126.032 2.85692 125.877 3.37804 125.484 3.77041C125.092 4.13825 124.635 4.33559 124.096 4.33559C123.728 4.33559 123.374 4.2965 122.908 4.12484C122.887 4.11768 122.855 4.10382 122.814 4.08594L122.814 4.08571C122.715 4.04238 122.562 3.97565 122.372 3.92368C122.127 3.85011 121.842 3.77041 121.548 3.77041C120.911 3.77041 120.221 4.05854 119.633 4.45091Z" fill="white"/>
<path d="M116.985 0.778886C117.294 1.08825 117.488 1.45837 117.568 1.88927C117.583 3.75389 117.606 6.63711 117.62 8.64236C117.613 8.78718 117.61 8.93497 117.61 9.08573V17.8036C117.61 18.4412 117.401 18.9807 116.985 19.4221C116.568 19.839 116.041 20.0475 115.403 20.0475C114.766 20.0475 114.239 19.839 113.822 19.4221C113.405 18.9807 113.196 18.4412 113.196 17.8036V2.36061C113.196 1.72302 113.405 1.19578 113.822 0.778886C114.239 0.337474 114.766 0.116767 115.403 0.116767C116.041 0.116767 116.568 0.337474 116.985 0.778886Z" fill="white"/>
<path d="M28.3139 0C30.398 0 32.0775 0.331059 33.3524 0.993178C34.6274 1.63077 35.2648 2.48907 35.2648 3.56808C35.2648 4.10759 35.1055 4.58578 34.7867 5.00267C34.468 5.39504 34.0512 5.59122 33.5363 5.59122C33.144 5.59122 32.8253 5.54218 32.5801 5.44408C32.3349 5.32147 32.0897 5.17433 31.8445 5.00267C31.6239 4.80649 31.4032 4.64709 31.1825 4.52448C30.9374 4.40186 30.5696 4.29151 30.0792 4.19342C29.6134 4.09532 29.2334 4.04628 28.9391 4.04628C27.1003 4.04628 25.6537 4.62257 24.5994 5.77514C23.5696 6.9032 23.0548 8.38683 23.0548 10.226C23.0548 11.9917 23.5819 13.4631 24.6362 14.6402C25.6905 15.7927 27.039 16.369 28.6817 16.369C29.8831 16.369 30.778 16.2219 31.3664 15.9276C31.5135 15.8541 31.7097 15.7314 31.9549 15.5598C32.2246 15.3636 32.4698 15.2165 32.6904 15.1184C32.9111 15.0203 33.1808 14.9712 33.4995 14.9712C34.1125 14.9712 34.5906 15.1674 34.9338 15.5598C35.3016 15.9521 35.4855 16.4549 35.4855 17.0679C35.4855 17.6565 35.1422 18.2083 34.4557 18.7232C33.7692 19.2382 32.862 19.6551 31.7342 19.9739C30.6064 20.2682 29.405 20.4153 28.13 20.4153C26.2421 20.4153 24.5749 19.9739 23.1283 19.0911C21.7063 18.2083 20.6029 16.9944 19.8184 15.4494C19.0338 13.88 18.6415 12.1388 18.6415 10.226C18.6415 8.23969 19.046 6.47405 19.8551 4.9291C20.6888 3.38416 21.8411 2.18254 23.3122 1.32424C24.7833 0.441412 26.4505 0 28.3139 0Z" fill="white"/>
<path d="M15.9981 16.1851C16.464 16.6756 16.6969 17.2273 16.6969 17.8404C16.6969 18.4535 16.4517 18.9685 15.9613 19.3854C15.4955 19.8022 14.9929 20.0107 14.4535 20.0107C13.816 20.0107 13.2766 19.7655 12.8353 19.275L5.91989 11.5025V11.4964C5.50209 11.0609 5.24512 10.4685 5.24512 9.81582C5.24512 9.15945 5.50494 8.56411 5.92683 8.1279L12.2836 1.06674C12.7495 0.60081 13.2889 0.367843 13.9018 0.367843C14.4412 0.367843 14.9193 0.60081 15.3361 1.06674C15.7775 1.50816 15.9981 1.96183 15.9981 2.42777C15.9981 3.01632 15.7039 3.56808 15.1155 4.08306L10.0371 9.19609L15.9981 16.1851Z" fill="white"/>
<path d="M4.41344 9.80898L4.41328 2.42777C4.41328 1.79017 4.20487 1.26293 3.78806 0.846038C3.37125 0.404627 2.84411 0.183922 2.20664 0.183922C1.56916 0.183922 1.04202 0.404627 0.625214 0.846038C0.208405 1.26293 0 1.79017 0 2.42777V17.7744C0 18.412 0.208405 18.9515 0.625214 19.3929C1.04202 19.8098 1.56916 20.0182 2.20664 20.0182C2.84411 20.0182 3.37125 19.8098 3.78806 19.3929C4.20487 18.9515 4.41328 18.412 4.41328 17.7744L4.41344 9.80898Z" fill="white"/>
<path fill-rule="evenodd" clip-rule="evenodd" d="M66.5594 15.523C67.4421 13.9535 67.8834 12.1879 67.8834 10.226C67.8834 8.26422 67.4421 6.51083 66.5594 4.96589C65.6768 3.39642 64.4631 2.18254 62.9185 1.32424C61.3983 0.441412 59.7189 0 57.88 0C56.0166 0 54.3248 0.441412 52.8047 1.32424C51.2846 2.18254 50.0832 3.39642 49.2006 4.96589C48.3179 6.51083 47.8766 8.26422 47.8766 10.226C47.8766 12.1879 48.3179 13.9535 49.2006 15.523C50.0832 17.0679 51.2846 18.2696 52.8047 19.1279C54.3248 19.9862 56.0166 20.4153 57.88 20.4153C59.7189 20.4153 61.3983 19.9862 62.9185 19.1279C64.4631 18.2696 65.6768 17.0679 66.5594 15.523ZM62.6978 7.02581C63.2127 7.95768 63.4701 9.02443 63.4701 10.226C63.4701 11.4277 63.2127 12.4944 62.6978 13.4263C62.2075 14.3582 61.5332 15.0816 60.6751 15.5966C59.8414 16.1115 58.9098 16.369 57.88 16.369C56.8502 16.369 55.9063 16.1115 55.0481 15.5966C54.2145 15.0816 53.5403 14.3582 53.0254 13.4263C52.535 12.4944 52.2898 11.4277 52.2898 10.226C52.2898 9.02443 52.535 7.95768 53.0254 7.02581C53.5403 6.06942 54.2145 5.33373 55.0481 4.81875C55.9063 4.30377 56.8502 4.04628 57.88 4.04628C58.9098 4.04628 59.8414 4.30377 60.6751 4.81875C61.5332 5.33373 62.2075 6.06942 62.6978 7.02581Z" fill="white"/>
<path d="M86.5065 0.404627C87.095 0.404627 87.5853 0.600811 87.9776 0.993178C88.3699 1.36102 88.566 1.82696 88.566 2.39098C88.566 2.68526 88.468 3.0531 88.2718 3.49451L81.3945 18.6497C81.2228 19.0666 80.9654 19.3976 80.6222 19.6428C80.3034 19.8881 79.9356 20.0229 79.5188 20.0475L79.1878 20.0843C78.771 20.0843 78.3787 19.9616 78.011 19.7164C77.6677 19.4467 77.398 19.0911 77.2019 18.6497L70.3613 3.49451C70.1897 3.10215 70.1038 2.70978 70.1038 2.31741C70.1038 1.82695 70.3122 1.38554 70.7291 0.993178C71.1459 0.576288 71.6607 0.367843 72.2737 0.367843C72.7395 0.367843 73.1686 0.490458 73.5609 0.735686C73.9532 0.980915 74.2474 1.32424 74.4436 1.76565L79.5188 13.3895L84.5573 1.80243C84.7535 1.3365 85.0232 0.980915 85.3664 0.735686C85.7097 0.490458 86.0897 0.380104 86.5065 0.404627Z" fill="white"/>
<path fill-rule="evenodd" clip-rule="evenodd" d="M108.817 11.1824C109.258 10.8146 109.491 10.3364 109.516 9.74785C109.516 8.00673 109.087 6.38822 108.229 4.89232C107.371 3.39642 106.218 2.20706 104.772 1.32424C103.35 0.441412 101.829 0 100.211 0C98.5685 0 97.0239 0.429151 95.5773 1.28745C94.1307 2.12123 92.9661 3.33512 92.0834 4.9291C91.2008 6.52309 90.7595 8.37457 90.7595 10.4835C90.7595 12.3718 91.1763 14.0761 92.0099 15.5966C92.8435 17.0925 94.0204 18.2696 95.5405 19.1279C97.0852 19.9862 98.8872 20.4153 100.947 20.4153C102.124 20.4153 103.288 20.2191 104.441 19.8268C105.593 19.4344 106.512 18.9562 107.199 18.3922C107.885 17.8527 108.229 17.2519 108.229 16.5897C108.229 16.0993 108.045 15.6701 107.677 15.3023C107.309 14.9344 106.868 14.7505 106.353 14.7505C105.961 14.7505 105.544 14.8609 105.103 15.0816C104.98 15.1552 104.747 15.3023 104.404 15.523C104.085 15.7192 103.644 15.9154 103.08 16.1115C102.516 16.2832 101.731 16.369 100.726 16.369C99.4021 16.369 98.213 15.9644 97.1587 15.1552C96.1044 14.3214 95.4302 13.1811 95.136 11.7342H107.272C107.861 11.7342 108.376 11.5503 108.817 11.1824ZM95.1727 8.05577C95.6876 5.38277 97.3671 4.04628 100.211 4.04628C101.364 4.04628 102.393 4.41412 103.301 5.14981C104.208 5.88549 104.71 6.76832 104.808 7.79828V8.05577H95.1727Z" fill="white"/>
<path d="M127.672 15.8908C127.672 16.3323 127.782 16.7001 128.003 16.9944C128.885 18.196 130.026 19.0666 131.423 19.6061C132.821 20.1456 134.328 20.4153 135.947 20.4153C137.124 20.4153 138.264 20.1823 139.367 19.7164C140.495 19.2505 141.414 18.5761 142.125 17.6933C142.836 16.7859 143.192 15.7314 143.192 14.5298C143.192 13.2056 142.885 12.1388 142.272 11.3296C141.659 10.5203 140.912 9.91951 140.029 9.52715C139.146 9.13478 138.043 8.75467 136.719 8.38683C135.763 8.11708 135.015 7.89637 134.476 7.72471C133.961 7.52853 133.532 7.27104 133.188 6.95224C132.845 6.60892 132.674 6.16751 132.674 5.62801C132.674 4.27925 133.605 3.60487 135.469 3.60487C136.351 3.60487 137.136 3.76427 137.822 4.08306C138.533 4.40186 139.11 4.83101 139.551 5.37051C139.894 5.71383 140.335 5.8855 140.875 5.8855C141.316 5.8855 141.708 5.75062 142.052 5.48087C142.518 5.11302 142.75 4.64709 142.75 4.08306C142.75 3.5926 142.591 3.15119 142.272 2.75883C141.561 1.85148 140.581 1.16484 139.33 0.698902C138.08 0.232967 136.829 0 135.579 0C134.353 0 133.188 0.245229 132.085 0.735686C131.006 1.20162 130.124 1.876 129.437 2.75883C128.775 3.61713 128.444 4.63483 128.444 5.81193C128.444 7.16069 128.763 8.23969 129.4 9.04895C130.062 9.83368 130.835 10.4222 131.717 10.8146C132.624 11.207 133.789 11.5993 135.211 11.9917C136.584 12.3595 137.589 12.7274 138.227 13.0952C138.889 13.4631 139.22 14.0026 139.22 14.7137C139.22 16.087 138.264 16.8104 136.351 16.884C135.223 16.884 134.255 16.7001 133.446 16.3323C132.661 15.9644 131.901 15.4004 131.166 14.6402C130.7 14.1742 130.209 13.9413 129.695 13.9413C129.327 13.9413 128.971 14.0516 128.628 14.2723C127.991 14.7137 127.672 15.2532 127.672 15.8908Z" fill="white"/>
<path fill-rule="evenodd" clip-rule="evenodd" d="M164.538 9.74785C164.514 10.3364 164.281 10.8146 163.839 11.1824C163.398 11.5503 162.883 11.7342 162.295 11.7342H150.158C150.452 13.1811 151.127 14.3214 152.181 15.1552C153.235 15.9644 154.424 16.369 155.748 16.369C156.754 16.369 157.538 16.2832 158.102 16.1115C158.666 15.9154 159.107 15.7192 159.426 15.523C159.769 15.3023 160.002 15.1552 160.125 15.0816C160.566 14.8609 160.983 14.7505 161.375 14.7505C161.89 14.7505 162.332 14.9344 162.699 15.3023C163.067 15.6701 163.251 16.0993 163.251 16.5897C163.251 17.2519 162.908 17.8527 162.221 18.3922C161.535 18.9562 160.615 19.4344 159.463 19.8268C158.311 20.2191 157.146 20.4153 155.969 20.4153C153.91 20.4153 152.107 19.9862 150.563 19.1279C149.043 18.2696 147.866 17.0925 147.032 15.5966C146.199 14.0761 145.782 12.3718 145.782 10.4835C145.782 8.37457 146.223 6.52309 147.106 4.9291C147.988 3.33512 149.153 2.12123 150.6 1.28745C152.046 0.429151 153.591 0 155.234 0C156.852 0 158.372 0.441412 159.794 1.32424C161.24 2.20706 162.393 3.39642 163.251 4.89232C164.109 6.38822 164.538 8.00673 164.538 9.74785ZM155.234 4.04628C152.389 4.04628 150.71 5.38277 150.195 8.05577H159.831V7.79828C159.733 6.76832 159.23 5.88549 158.323 5.14981C157.416 4.41412 156.386 4.04628 155.234 4.04628Z" fill="white"/>
<path fill-rule="evenodd" clip-rule="evenodd" d="M185.868 0.625334C185.452 0.208444 184.924 0 184.287 0C183.65 0 183.122 0.220706 182.706 0.662118C182.289 1.07901 182.23 1.37215 182.23 2.00974C181.519 1.34762 180.257 0.731119 179.519 0.5058C178.448 0.178429 177.336 0 176.159 0C174.516 0 173.009 0.441412 171.636 1.32424C170.287 2.18254 169.221 3.39642 168.436 4.96589C167.651 6.51083 167.259 8.26422 167.259 10.226C167.259 12.1879 167.651 13.9413 168.436 15.4862C169.245 17.0312 170.336 18.245 171.709 19.1279C173.082 19.9862 174.615 20.4153 176.306 20.4153C177.459 20.4153 178.55 20.1701 179.58 19.6796C180.634 19.1646 181.467 18.5516 182.08 17.8404C182.105 18.478 182.313 19.0052 182.706 19.4221C183.122 19.839 183.65 20.0475 184.287 20.0475C184.924 20.0475 185.452 19.839 185.868 19.4221C186.285 18.9807 186.494 18.4412 186.494 17.8036V2.24384C186.494 1.58173 186.285 1.04222 185.868 0.625334ZM180.756 14.6402C179.751 15.7927 178.452 16.369 176.858 16.369C175.264 16.369 173.965 15.7927 172.96 14.6402C171.979 13.4631 171.488 11.9917 171.488 10.226C171.488 8.4604 171.991 6.98903 172.996 5.81193C174.002 4.63483 175.289 4.04628 176.858 4.04628C178.452 4.04628 179.751 4.63483 180.756 5.81193C181.762 6.98903 182.264 8.4604 182.264 10.226C182.264 11.9917 181.762 13.4631 180.756 14.6402Z" fill="white"/>
<path d="M190.136 16.9944C189.916 16.7001 189.805 16.3323 189.805 15.8908C189.805 15.2532 190.124 14.7137 190.762 14.2723C191.105 14.0516 191.46 13.9413 191.828 13.9413C192.343 13.9413 192.833 14.1742 193.299 14.6402C194.035 15.4004 194.795 15.9644 195.579 16.3323C196.388 16.7001 197.357 16.884 198.485 16.884C200.397 16.8104 201.353 16.087 201.353 14.7137C201.353 14.0026 201.022 13.4631 200.36 13.0952C199.723 12.7274 198.718 12.3595 197.345 11.9917C195.923 11.5993 194.758 11.207 193.851 10.8146C192.968 10.4222 192.196 9.83368 191.534 9.04895C190.896 8.23969 190.578 7.16069 190.578 5.81193C190.578 4.63483 190.909 3.61713 191.571 2.75883C192.257 1.876 193.14 1.20162 194.219 0.735686C195.322 0.245229 196.487 0 197.712 0C198.963 0 200.213 0.232967 201.464 0.698902C202.714 1.16484 203.695 1.85148 204.406 2.75883C204.725 3.15119 204.884 3.5926 204.884 4.08306C204.884 4.64709 204.651 5.11302 204.185 5.48087C203.842 5.75062 203.45 5.8855 203.008 5.8855C202.469 5.8855 202.028 5.71383 201.684 5.37051C201.243 4.83101 200.667 4.40186 199.956 4.08306C199.269 3.76427 198.485 3.60487 197.602 3.60487C195.739 3.60487 194.807 4.27925 194.807 5.62801C194.807 6.16751 194.979 6.60892 195.322 6.95224C195.665 7.27104 196.094 7.52853 196.609 7.72471C197.149 7.89637 197.896 8.11708 198.853 8.38683C200.177 8.75467 201.28 9.13478 202.162 9.52715C203.045 9.91951 203.793 10.5203 204.406 11.3296C205.019 12.1388 205.325 13.2056 205.325 14.5298C205.325 15.7314 204.97 16.7859 204.259 17.6933C203.548 18.5761 202.628 19.2505 201.5 19.7164C200.397 20.1823 199.257 20.4153 198.08 20.4153C196.462 20.4153 194.954 20.1456 193.557 19.6061C192.159 19.0666 191.019 18.196 190.136 16.9944Z" fill="white"/>
<path d="M51.5781 38.3527C51.563 38.6259 51.4491 38.8611 51.2367 39.0584C51.0242 39.2406 50.7738 39.3316 50.4855 39.3316H42.4725C42.5787 40.4395 42.9961 41.3273 43.7245 41.995C44.4681 42.6628 45.3711 42.9966 46.4334 42.9966C47.1619 42.9966 47.7538 42.8904 48.209 42.6779C48.6643 42.4655 49.0665 42.1923 49.4155 41.8584C49.6432 41.7218 49.8632 41.6536 50.0757 41.6536C50.3337 41.6536 50.5462 41.7446 50.7131 41.9267C50.8952 42.1088 50.9863 42.3213 50.9863 42.5641C50.9863 42.8828 50.8345 43.1712 50.531 43.4292C50.0909 43.8693 49.5066 44.2411 48.7782 44.5446C48.0497 44.8481 47.3061 44.9999 46.5473 44.9999C45.318 44.9999 44.2329 44.7419 43.292 44.2259C42.3662 43.7099 41.6454 42.9891 41.1294 42.0633C40.6286 41.1376 40.3782 40.0904 40.3782 38.9219C40.3782 37.6471 40.6362 36.5316 41.1522 35.5755C41.6833 34.6042 42.3738 33.8606 43.2237 33.3446C44.0887 32.8286 45.0145 32.5706 46.0009 32.5706C46.9722 32.5706 47.8828 32.8211 48.7326 33.3219C49.5825 33.8227 50.2654 34.5132 50.7814 35.3934C51.2974 36.2736 51.563 37.2601 51.5781 38.3527ZM46.0009 34.5739C45.1511 34.5739 44.415 34.8167 43.7928 35.3024C43.1706 35.7728 42.7608 36.5089 42.5635 37.5105H49.279V37.3284C49.2031 36.524 48.8389 35.8639 48.1863 35.3479C47.5489 34.8319 46.8204 34.5739 46.0009 34.5739Z" fill="white"/>
<path d="M66.5594 27.9268C66.8781 27.9268 67.1361 28.033 67.3334 28.2455C67.5458 28.4427 67.6521 28.7007 67.6521 29.0194V43.6796C67.6521 43.9831 67.5458 44.2411 67.3334 44.4535C67.1361 44.666 66.8781 44.7722 66.5594 44.7722C66.2407 44.7722 65.9827 44.6736 65.7854 44.4763C65.5881 44.2638 65.4895 43.9983 65.4895 43.6796V43.0422C65.1101 43.5885 64.5713 44.0514 63.8732 44.4308C63.1903 44.8102 62.4543 44.9999 61.6651 44.9999C60.6331 44.9999 59.6998 44.7343 58.8651 44.2031C58.0304 43.672 57.3703 42.9359 56.8846 41.995C56.399 41.0389 56.1562 39.969 56.1562 38.7853C56.1562 37.6015 56.3914 36.5392 56.8619 35.5983C57.3475 34.6422 58.0077 33.8986 58.8423 33.3674C59.677 32.8362 60.5952 32.5706 61.5968 32.5706C62.4011 32.5706 63.1448 32.7376 63.8277 33.0715C64.5106 33.4053 65.0645 33.8379 65.4895 34.369V29.0194C65.4895 28.7007 65.5881 28.4427 65.7854 28.2455C65.9827 28.033 66.2407 27.9268 66.5594 27.9268ZM61.9155 42.9966C62.6288 42.9966 63.2586 42.8145 63.8049 42.4503C64.3664 42.0861 64.799 41.5853 65.1025 40.9479C65.4212 40.3105 65.5805 39.5896 65.5805 38.7853C65.5805 37.9961 65.4212 37.2828 65.1025 36.6454C64.799 35.9929 64.3664 35.4845 63.8049 35.1202C63.2586 34.756 62.6288 34.5739 61.9155 34.5739C61.2022 34.5739 60.5648 34.756 60.0033 35.1202C59.457 35.4845 59.0245 35.9929 58.7058 36.6454C58.4022 37.2828 58.2505 37.9961 58.2505 38.7853C58.2505 39.5896 58.4022 40.3105 58.7058 40.9479C59.0245 41.5853 59.457 42.0861 60.0033 42.4503C60.5648 42.8145 61.2022 42.9966 61.9155 42.9966Z" fill="white"/>
<path d="M81.3903 32.8438C81.709 32.8438 81.967 32.9501 82.1642 33.1625C82.3767 33.375 82.4829 33.633 82.4829 33.9365V39.9918C82.4829 41.5701 82.0428 42.7994 81.1626 43.6796C80.2976 44.5446 79.0683 44.9771 77.4748 44.9771C75.8965 44.9771 74.6748 44.5446 73.8098 43.6796C72.9448 42.7994 72.5122 41.5701 72.5122 39.9918V33.9365C72.5122 33.633 72.6109 33.375 72.8082 33.1625C73.0206 32.9501 73.2786 32.8438 73.5821 32.8438C73.9008 32.8438 74.1588 32.9501 74.3561 33.1625C74.5686 33.375 74.6748 33.633 74.6748 33.9365V39.9918C74.6748 41.9798 75.6082 42.9739 77.4748 42.9739C78.4006 42.9739 79.1063 42.7235 79.5919 42.2227C80.0775 41.7218 80.3203 40.9782 80.3203 39.9918V33.9365C80.3203 33.633 80.419 33.375 80.6163 33.1625C80.8287 32.9501 81.0867 32.8438 81.3903 32.8438Z" fill="white"/>
<path d="M93.2006 32.5706C94.3995 32.5706 95.3936 32.7604 96.1827 33.1398C96.9871 33.5192 97.3892 34.0048 97.3892 34.5967C97.3892 34.8547 97.3058 35.0899 97.1388 35.3024C96.9719 35.4996 96.7594 35.5983 96.5014 35.5983C96.3041 35.5983 96.1448 35.5679 96.0234 35.5072C95.9171 35.4465 95.7654 35.3479 95.5681 35.2113C95.477 35.1202 95.3329 35.014 95.1356 34.8926C94.9535 34.8015 94.6955 34.7257 94.3616 34.665C94.0277 34.6042 93.7242 34.5739 93.451 34.5739C92.6619 34.5739 91.9638 34.756 91.3567 35.1202C90.7497 35.4845 90.2792 35.9929 89.9453 36.6454C89.6115 37.2828 89.4445 37.9961 89.4445 38.7853C89.4445 39.5896 89.6039 40.3105 89.9226 40.9479C90.2565 41.5853 90.7193 42.0861 91.3112 42.4503C91.9031 42.8145 92.5784 42.9966 93.3372 42.9966C94.1264 42.9966 94.7638 42.8752 95.2494 42.6324C95.3556 42.5717 95.4998 42.4731 95.6819 42.3365C95.8337 42.2151 95.9627 42.124 96.0689 42.0633C96.1903 42.0026 96.3345 41.9723 96.5014 41.9723C96.8049 41.9723 97.0402 42.0709 97.2071 42.2682C97.3892 42.4503 97.4803 42.6931 97.4803 42.9966C97.4803 43.3153 97.2754 43.634 96.8656 43.9527C96.4711 44.2563 95.9323 44.5067 95.2494 44.704C94.5816 44.9012 93.8608 44.9999 93.0868 44.9999C91.9334 44.9999 90.9166 44.7343 90.0364 44.2031C89.1562 43.6568 88.4733 42.9132 87.9876 41.9723C87.5172 41.0162 87.2819 39.9538 87.2819 38.7853C87.2819 37.6167 87.5323 36.562 88.0331 35.621C88.534 34.665 89.2321 33.9213 90.1275 33.3902C91.0228 32.8438 92.0472 32.5706 93.2006 32.5706Z" fill="white"/>
<path d="M112.927 32.6845C113.246 32.6845 113.504 32.7907 113.701 33.0032C113.913 33.2005 114.02 33.466 114.02 33.7999V43.6796C114.02 43.9831 113.913 44.2411 113.701 44.4535C113.504 44.666 113.246 44.7722 112.927 44.7722C112.608 44.7722 112.35 44.6736 112.153 44.4763C111.956 44.2638 111.857 43.9983 111.857 43.6796V43.0877C111.463 43.6189 110.924 44.0741 110.241 44.4535C109.558 44.8178 108.822 44.9999 108.033 44.9999C107.001 44.9999 106.06 44.7343 105.21 44.2031C104.375 43.672 103.715 42.9359 103.229 41.995C102.759 41.0389 102.524 39.969 102.524 38.7853C102.524 37.6015 102.759 36.5392 103.229 35.5983C103.715 34.6422 104.375 33.8986 105.21 33.3674C106.045 32.8362 106.963 32.5706 107.964 32.5706C108.769 32.5706 109.512 32.7376 110.195 33.0715C110.893 33.4053 111.447 33.8303 111.857 34.3463V33.7999C111.857 33.4812 111.956 33.2156 112.153 33.0032C112.35 32.7907 112.608 32.6845 112.927 32.6845ZM108.283 42.9966C108.996 42.9966 109.626 42.8145 110.173 42.4503C110.734 42.0861 111.167 41.5853 111.47 40.9479C111.789 40.3105 111.948 39.5896 111.948 38.7853C111.948 37.9961 111.789 37.2828 111.47 36.6454C111.167 36.008 110.734 35.5072 110.173 35.143C109.626 34.7636 108.996 34.5739 108.283 34.5739C107.57 34.5739 106.932 34.756 106.371 35.1202C105.825 35.4845 105.392 35.9853 105.073 36.6227C104.77 37.2601 104.618 37.9809 104.618 38.7853C104.618 39.5896 104.77 40.3105 105.073 40.9479C105.392 41.5853 105.825 42.0861 106.371 42.4503C106.932 42.8145 107.57 42.9966 108.283 42.9966Z" fill="white"/>
<path d="M123.514 34.9609V41.7446C123.514 42.5034 123.856 42.8828 124.539 42.8828C124.645 42.8828 124.789 42.8601 124.971 42.8145C125.153 42.7538 125.297 42.7235 125.404 42.7235C125.601 42.7235 125.768 42.8069 125.904 42.9739C126.041 43.1408 126.109 43.3533 126.109 43.6113C126.109 43.93 125.927 44.2031 125.563 44.4308C125.199 44.6584 124.789 44.7722 124.334 44.7722C123.833 44.7722 123.37 44.7191 122.945 44.6129C122.535 44.5067 122.164 44.2411 121.83 43.8161C121.511 43.376 121.352 42.7159 121.352 41.8357V34.9609H120.031C119.743 34.9609 119.5 34.8698 119.303 34.6877C119.121 34.4904 119.03 34.2476 119.03 33.9593C119.03 33.6709 119.121 33.4357 119.303 33.2536C119.5 33.0715 119.743 32.9804 120.031 32.9804H121.352V31.0682C121.352 30.7647 121.45 30.5067 121.648 30.2942C121.86 30.0818 122.126 29.9755 122.444 29.9755C122.748 29.9755 122.998 30.0818 123.196 30.2942C123.408 30.5067 123.514 30.7647 123.514 31.0682V32.9804H125.404C125.692 32.9804 125.927 33.079 126.109 33.2763C126.307 33.4585 126.405 33.6937 126.405 33.982C126.405 34.2704 126.307 34.5056 126.109 34.6877C125.927 34.8698 125.692 34.9609 125.404 34.9609H123.514Z" fill="white"/>
<path d="M133.271 43.6796C133.271 43.9831 133.165 44.2411 132.953 44.4535C132.755 44.666 132.497 44.7722 132.179 44.7722C131.875 44.7722 131.617 44.666 131.405 44.4535C131.207 44.2411 131.109 43.9831 131.109 43.6796V33.8227C131.109 33.5192 131.207 33.2612 131.405 33.0487C131.617 32.8362 131.875 32.73 132.179 32.73C132.497 32.73 132.755 32.8362 132.953 33.0487C133.165 33.2612 133.271 33.5192 133.271 33.8227V43.6796ZM132.179 31.2276C131.739 31.2276 131.42 31.1517 131.223 30.9999C131.04 30.833 130.949 30.575 130.949 30.2259V29.8617C130.949 29.4975 131.048 29.2395 131.245 29.0877C131.458 28.936 131.776 28.8601 132.201 28.8601C132.626 28.8601 132.93 28.9436 133.112 29.1105C133.309 29.2623 133.408 29.5127 133.408 29.8617V30.2259C133.408 30.5902 133.309 30.8482 133.112 30.9999C132.915 31.1517 132.604 31.2276 132.179 31.2276Z" fill="white"/>
<path d="M149.964 38.808C149.964 39.9918 149.699 41.0541 149.167 41.995C148.636 42.9359 147.908 43.672 146.982 44.2031C146.072 44.7343 145.062 44.9999 143.955 44.9999C142.847 44.9999 141.83 44.7343 140.904 44.2031C139.994 43.672 139.273 42.9359 138.742 41.995C138.21 41.0541 137.945 39.9918 137.945 38.808C137.945 37.6243 138.21 36.5544 138.742 35.5983C139.273 34.6422 139.994 33.8986 140.904 33.3674C141.83 32.8362 142.847 32.5706 143.955 32.5706C145.062 32.5706 146.072 32.8362 146.982 33.3674C147.908 33.8986 148.636 34.6422 149.167 35.5983C149.699 36.5544 149.964 37.6243 149.964 38.808ZM147.802 38.808C147.802 37.9885 147.627 37.2601 147.278 36.6227C146.944 35.9701 146.481 35.4693 145.889 35.1202C145.313 34.756 144.668 34.5739 143.955 34.5739C143.241 34.5739 142.589 34.756 141.997 35.1202C141.42 35.4693 140.957 35.9701 140.608 36.6227C140.274 37.2601 140.107 37.9885 140.107 38.808C140.107 39.6124 140.274 40.3332 140.608 40.9706C140.957 41.608 141.42 42.1088 141.997 42.4731C142.589 42.8221 143.241 42.9966 143.955 42.9966C144.668 42.9966 145.313 42.8221 145.889 42.4731C146.481 42.1088 146.944 41.608 147.278 40.9706C147.627 40.3332 147.802 39.6124 147.802 38.808Z" fill="white"/>
<path d="M160.85 32.5706C163.581 32.5706 164.947 34.2097 164.947 37.4877V43.6796C164.947 43.9831 164.841 44.2411 164.628 44.4535C164.431 44.666 164.173 44.7722 163.854 44.7722C163.551 44.7722 163.293 44.666 163.081 44.4535C162.883 44.2411 162.785 43.9831 162.785 43.6796V37.5105C162.785 36.6151 162.58 35.9018 162.17 35.3706C161.76 34.8395 161.092 34.5739 160.167 34.5739C159.56 34.5739 159.006 34.7105 158.505 34.9837C158.019 35.2416 157.632 35.5983 157.344 36.0536C157.071 36.4937 156.934 36.9793 156.934 37.5105V43.6796C156.934 43.9831 156.828 44.2411 156.616 44.4535C156.418 44.666 156.16 44.7722 155.842 44.7722C155.523 44.7722 155.265 44.6736 155.068 44.4763C154.87 44.2638 154.772 43.9983 154.772 43.6796V33.9365C154.772 33.633 154.87 33.375 155.068 33.1625C155.28 32.9501 155.538 32.8438 155.842 32.8438C156.16 32.8438 156.418 32.9501 156.616 33.1625C156.828 33.375 156.934 33.633 156.934 33.9365V34.7332C157.329 34.1262 157.875 33.6178 158.573 33.208C159.286 32.7831 160.045 32.5706 160.85 32.5706Z" fill="white"/>
</svg>
