<svg width="105" height="62" viewBox="0 0 105 62" fill="none" xmlns="http://www.w3.org/2000/svg">
<path d="M52.5 9C23.5051 9 0 32.5051 0 61.5H105C105 32.5051 81.4949 9 52.5 9Z" fill="#D3D5DB"/>
<path d="M38 1V0H37V1H38ZM66.5901 1H67.5901V0H66.5901V1ZM44.6123 12.8836C44.8595 12.3898 44.6595 11.789 44.1656 11.5418C43.6717 11.2946 43.071 11.4946 42.8238 11.9885L44.6123 12.8836ZM38.0014 23.8571L37.1072 23.4095L36.8142 23.9948L37.2334 24.4975L38.0014 23.8571ZM52.2965 41L51.5284 41.6404C51.7184 41.8683 51.9998 42 52.2965 42C52.5931 42 52.8745 41.8683 53.0645 41.6404L52.2965 41ZM66.5915 23.8571L67.3595 24.4975L67.7788 23.9947L67.4857 23.4093L66.5915 23.8571ZM61.7662 11.9883C61.5189 11.4945 60.9182 11.2946 60.4243 11.5419C59.9305 11.7892 59.7307 12.39 59.978 12.8838L61.7662 11.9883ZM53.2951 26.7143L53.295 25.7143L51.295 25.7145L51.2951 26.7145L53.2951 26.7143ZM52.2951 14.2856C44.9501 14.2856 39 8.33854 39 1H37C37 9.44436 43.8468 16.2856 52.2951 16.2856V14.2856ZM38 2H66.5901V0H38V2ZM65.5901 1C65.5901 8.33854 59.64 14.2856 52.2951 14.2856V16.2856C60.7433 16.2856 67.5901 9.44436 67.5901 1H65.5901ZM42.8238 11.9885L37.1072 23.4095L38.8956 24.3047L44.6123 12.8836L42.8238 11.9885ZM37.2334 24.4975L51.5284 41.6404L53.0645 40.3596L38.7694 23.2167L37.2334 24.4975ZM53.0645 41.6404L67.3595 24.4975L65.8235 23.2167L51.5284 40.3596L53.0645 41.6404ZM67.4857 23.4093L61.7662 11.9883L59.978 12.8838L65.6974 24.3049L67.4857 23.4093ZM53.2965 40.9999L53.2951 26.7143L51.2951 26.7145L51.2965 41.0001L53.2965 40.9999Z" fill="#0E1B2C"/>
</svg>
