<svg width="33" height="22" viewBox="0 0 33 22" fill="none" xmlns="http://www.w3.org/2000/svg">
<path fill-rule="evenodd" clip-rule="evenodd" d="M0.0268314 14.2425C0.0232656 14.3373 0.0214669 14.4326 0.0214669 14.5283C0.0214665 18.6548 3.36666 22 7.49316 22C11.6197 22 14.9648 18.6548 14.9648 14.5283C14.9648 10.4018 11.6197 7.05662 7.49316 7.05662C6.73001 7.05662 5.99359 7.17103 5.3001 7.38364C6.81694 4.06868 11.3772 1.11105 13.5806 -0.0015527C2.06863 2.26762 -0.255894 10.445 0.0208356 14.25L0.0268314 14.2425Z" fill="#226CF5"/>
<path fill-rule="evenodd" clip-rule="evenodd" d="M18.0483 14.2419C18.0448 14.3369 18.043 14.4324 18.043 14.5283C18.043 18.6548 21.3881 22 25.5146 22C29.6411 22 32.9863 18.6548 32.9863 14.5283C32.9863 10.4018 29.6411 7.05662 25.5146 7.05662C24.7513 7.05662 24.0147 7.1711 23.321 7.38382C24.8378 4.06879 29.3981 1.11107 31.6016 -0.0015527C20.0896 2.26762 17.7651 10.445 18.0418 14.25L18.0483 14.2419Z" fill="#226CF5"/>
</svg>
