<svg width="16" height="16" viewBox="0 0 16 16" fill="none" xmlns="http://www.w3.org/2000/svg">
<path opacity="0.5" d="M7.06974 1.35872C7.40266 0.51457 8.59734 0.51457 8.93026 1.35872L10.3862 5.05039C10.4879 5.30811 10.6919 5.51212 10.9496 5.61376L14.6413 7.06974C15.4854 7.40266 15.4854 8.59734 14.6413 8.93026L10.9496 10.3862C10.6919 10.4879 10.4879 10.6919 10.3862 10.9496L8.93026 14.6413C8.59734 15.4854 7.40266 15.4854 7.06974 14.6413L5.61376 10.9496C5.51212 10.6919 5.30811 10.4879 5.05039 10.3862L1.35872 8.93026C0.51457 8.59734 0.51457 7.40266 1.35872 7.06974L5.05039 5.61376C5.30811 5.51212 5.51212 5.30811 5.61376 5.05039L7.06974 1.35872Z" fill="white"/>
</svg>
