<svg width="18" height="18" viewBox="0 0 18 18" fill="none" xmlns="http://www.w3.org/2000/svg">
<path d="M8.06974 1.35872C8.40266 0.51457 9.59734 0.51457 9.93026 1.35872L11.6691 5.76755C11.7707 6.02527 11.9747 6.22927 12.2325 6.33092L16.6413 8.06974C17.4854 8.40266 17.4854 9.59734 16.6413 9.93026L12.2325 11.6691C11.9747 11.7707 11.7707 11.9747 11.6691 12.2325L9.93026 16.6413C9.59734 17.4854 8.40266 17.4854 8.06974 16.6413L6.33092 12.2325C6.22927 11.9747 6.02527 11.7707 5.76755 11.6691L1.35872 9.93026C0.51457 9.59734 0.51457 8.40266 1.35872 8.06974L5.76755 6.33092C6.02527 6.22927 6.22927 6.02527 6.33092 5.76755L8.06974 1.35872Z" fill="white"/>
</svg>
