<svg width="32" height="32" viewBox="0 0 32 32" fill="none" xmlns="http://www.w3.org/2000/svg">
<path d="M16 2.07143H17C17 1.69266 16.786 1.34639 16.4472 1.177L16 2.07143ZM16 4.21429L16.4472 5.10871C16.786 4.93932 17 4.59306 17 4.21429H16ZM13.8571 5.28571L13.4099 4.39129C13.0911 4.55071 12.8812 4.8678 12.8591 5.22358C12.8369 5.57936 13.0058 5.92003 13.3024 6.11776L13.8571 5.28571ZM17.0714 7.42857L16.5167 8.26062C16.681 8.37013 16.874 8.42857 17.0714 8.42857V7.42857ZM18.1429 7.42857V8.42857C18.6951 8.42857 19.1429 7.98086 19.1429 7.42857H18.1429ZM18.1429 5.28571V4.28571C17.5906 4.28571 17.1429 4.73343 17.1429 5.28571H18.1429ZM21.3571 5.28571H22.3571C22.3571 4.73343 21.9094 4.28571 21.3571 4.28571V5.28571ZM21.3571 7.42857H20.3571C20.3571 7.69379 20.4625 7.94814 20.65 8.13568L21.3571 7.42857ZM22.4286 8.5H23.4286C23.4286 8.23478 23.3232 7.98043 23.1357 7.79289L22.4286 8.5ZM22.4286 10.6429L23.1357 11.35C23.3232 11.1624 23.4286 10.9081 23.4286 10.6429H22.4286ZM21.3571 11.7143V12.7143C21.6224 12.7143 21.8767 12.6089 22.0642 12.4214L21.3571 11.7143ZM19.2143 11.7143L18.7671 12.6087C18.9059 12.6781 19.059 12.7143 19.2143 12.7143V11.7143ZM14.9286 9.57143L15.3758 8.677C15.0943 8.53624 14.7629 8.53624 14.4814 8.677L14.9286 9.57143ZM12.7857 10.6429V11.6429C12.941 11.6429 13.0941 11.6067 13.2329 11.5373L12.7857 10.6429ZM9.57143 10.6429V9.64286C9.11256 9.64286 8.71258 9.95515 8.60129 10.4003L9.57143 10.6429ZM8.5 14.9286L7.52986 14.686C7.44466 15.0268 7.54451 15.3873 7.79289 15.6357L8.5 14.9286ZM11.7143 18.1429L11.0072 18.85C11.0832 18.926 11.1709 18.9892 11.2671 19.0373L11.7143 18.1429ZM13.8571 19.2143H14.8571C14.8571 18.8355 14.6431 18.4893 14.3044 18.3199L13.8571 19.2143ZM13.8571 22.4286H12.8571C12.8571 22.6938 12.9625 22.9481 13.15 23.1357L13.8571 22.4286ZM14.9286 23.5H15.9286C15.9286 23.2348 15.8232 22.9804 15.6357 22.7929L14.9286 23.5ZM14.9286 25.6429H13.9286C13.9286 25.7981 13.9647 25.9512 14.0341 26.0901L14.9286 25.6429ZM16 27.7857L15.1056 28.2329C15.275 28.5717 15.6212 28.7857 16 28.7857V27.7857ZM18.1429 27.7857V28.7857C18.4772 28.7857 18.7894 28.6186 18.9749 28.3404L18.1429 27.7857ZM20.2857 24.5714L21.1178 25.1261C21.1408 25.0916 21.1616 25.0557 21.1801 25.0186L20.2857 24.5714ZM21.3571 22.4286L22.2516 22.8758C22.321 22.7369 22.3571 22.5838 22.3571 22.4286H21.3571ZM21.3571 20.2857L20.5571 19.6857C20.4273 19.8588 20.3571 20.0693 20.3571 20.2857H21.3571ZM24.5714 16L25.3714 16.6C25.5987 16.297 25.6352 15.8916 25.4659 15.5528L24.5714 16ZM23.5 13.8571V12.8571C23.1534 12.8571 22.8316 13.0366 22.6493 13.3314C22.4671 13.6262 22.4506 13.9944 22.6056 14.3044L23.5 13.8571ZM26.7143 13.8571V14.8571C27.2666 14.8571 27.7143 14.4094 27.7143 13.8571H26.7143ZM26.7143 11.7143V10.7143C26.162 10.7143 25.7143 11.162 25.7143 11.7143H26.7143ZM16 30C8.26801 30 2 23.732 2 16H0C0 24.8366 7.16344 32 16 32V30ZM30 16C30 23.732 23.732 30 16 30V32C24.8366 32 32 24.8366 32 16H30ZM16 2C23.732 2 30 8.26801 30 16H32C32 7.16344 24.8366 0 16 0V2ZM16 0C7.16344 0 0 7.16344 0 16H2C2 8.26801 8.26801 2 16 2V0ZM13.4099 1.89443L15.5528 2.96586L16.4472 1.177L14.3044 0.105573L13.4099 1.89443ZM15 2.07143V4.21429H17V2.07143H15ZM15.5528 3.31986L13.4099 4.39129L14.3044 6.18014L16.4472 5.10871L15.5528 3.31986ZM13.3024 6.11776L16.5167 8.26062L17.6261 6.59652L14.4118 4.45366L13.3024 6.11776ZM17.0714 8.42857H18.1429V6.42857H17.0714V8.42857ZM19.1429 7.42857V5.28571H17.1429V7.42857H19.1429ZM18.1429 6.28571H21.3571V4.28571H18.1429V6.28571ZM20.3571 5.28571V7.42857H22.3571V5.28571H20.3571ZM20.65 8.13568L21.7215 9.20711L23.1357 7.79289L22.0642 6.72146L20.65 8.13568ZM21.4286 8.5V10.6429H23.4286V8.5H21.4286ZM21.7215 9.93575L20.65 11.0072L22.0642 12.4214L23.1357 11.35L21.7215 9.93575ZM21.3571 10.7143H19.2143V12.7143H21.3571V10.7143ZM19.6615 10.8199L15.3758 8.677L14.4814 10.4659L18.7671 12.6087L19.6615 10.8199ZM14.4814 8.677L12.3385 9.74843L13.2329 11.5373L15.3758 10.4659L14.4814 8.677ZM12.7857 9.64286H9.57143V11.6429H12.7857V9.64286ZM8.60129 10.4003L7.52986 14.686L9.47014 15.1711L10.5416 10.8854L8.60129 10.4003ZM7.79289 15.6357L11.0072 18.85L12.4214 17.4357L9.20711 14.2215L7.79289 15.6357ZM11.2671 19.0373L13.4099 20.1087L14.3044 18.3199L12.1615 17.2484L11.2671 19.0373ZM12.8571 19.2143V22.4286H14.8571V19.2143H12.8571ZM13.15 23.1357L14.2215 24.2071L15.6357 22.7929L14.5642 21.7215L13.15 23.1357ZM13.9286 23.5V25.6429H15.9286V23.5H13.9286ZM14.0341 26.0901L15.1056 28.2329L16.8944 27.3385L15.823 25.1956L14.0341 26.0901ZM16 28.7857H18.1429V26.7857H16V28.7857ZM18.9749 28.3404L21.1178 25.1261L19.4537 24.0167L17.3108 27.231L18.9749 28.3404ZM21.1801 25.0186L22.2516 22.8758L20.4627 21.9814L19.3913 24.1242L21.1801 25.0186ZM22.3571 22.4286V20.2857H20.3571V22.4286H22.3571ZM22.1571 20.8857L25.3714 16.6L23.7714 15.4L20.5571 19.6857L22.1571 20.8857ZM25.4659 15.5528L24.3944 13.4099L22.6056 14.3044L23.677 16.4472L25.4659 15.5528ZM23.5 14.8571H26.7143V12.8571H23.5V14.8571ZM27.7143 13.8571V11.7143H25.7143V13.8571H27.7143ZM26.7143 12.7143H31V10.7143H26.7143V12.7143Z" fill="#FDAF4D"/>
</svg>
