<svg width="105" height="68" viewBox="0 0 105 68" fill="none" xmlns="http://www.w3.org/2000/svg">
<path d="M52.5 15C23.5051 15 0 38.5051 0 67.5H105C105 38.5051 81.4949 15 52.5 15Z" fill="#ADCBFF"/>
<path d="M75.2857 47.2857C79.5462 47.2857 80 43.8319 80 39.5714V31.8571C80 27.5967 79.5462 24.1429 75.2857 24.1429C73.1555 24.1429 71.4286 25.8698 71.4286 28V43.4286C71.4286 45.5588 73.1555 47.2857 75.2857 47.2857ZM75.2857 47.2857C75.2857 51.5462 71.8319 55 67.5714 55H57.9286M80 37.6429V28C80 13.0883 67.9117 1 53 1C38.0883 1 26 13.0883 26 28V37.6429M30.7143 47.2857C32.8445 47.2857 34.5714 45.5588 34.5714 43.4286V28C34.5714 25.8698 32.8445 24.1429 30.7143 24.1429C26.4538 24.1429 26 27.5967 26 31.8571V39.5714C26 43.8319 26.4538 47.2857 30.7143 47.2857Z" stroke="#0E1B2C" stroke-width="2"/>
<circle cx="47" cy="25" r="2" fill="#0E1B2C"/>
<circle cx="61" cy="25" r="2" fill="#0E1B2C"/>
<path d="M45 36H63C61.1667 39.8333 52 45 45 36Z" stroke="#0E1B2C" stroke-width="2" stroke-linecap="round" stroke-linejoin="round"/>
</svg>
