<svg width="181" height="191" viewBox="0 0 181 191" fill="none" xmlns="http://www.w3.org/2000/svg">
<g filter="url(#filter0_d_1_409)">
<path d="M102.669 150.835C105.566 153.722 110.263 153.722 113.16 150.835C116.056 147.949 116.056 143.27 113.16 140.384C110.263 137.498 105.566 137.498 102.669 140.384C99.7721 143.27 99.7721 147.949 102.669 150.835Z" fill="url(#paint0_linear_1_409)"/>
<path d="M138.337 140.384C141.234 143.27 145.93 143.27 148.827 140.384C151.724 137.498 151.724 132.819 148.827 129.933L62.3855 43.813C59.4886 40.927 54.7918 40.927 51.895 43.813C48.9981 46.6991 48.9981 51.3784 51.895 54.2645L138.337 140.384Z" fill="url(#paint1_linear_1_409)"/>
<path d="M118.195 76.0033C121.092 78.8894 125.789 78.8894 128.686 76.0033C131.582 73.1172 131.582 68.438 128.686 65.5519L100.991 37.9601C98.0937 35.074 93.3969 35.074 90.5 37.9601C87.6031 40.8463 87.6031 45.5254 90.5 48.4116L118.195 76.0033Z" fill="url(#paint2_linear_1_409)"/>
<path d="M78.7506 116.555C75.8538 119.441 71.157 119.441 68.2601 116.555L40.5652 88.9632C37.6682 86.077 37.6682 81.3979 40.5652 78.5117C43.4621 75.6256 48.1588 75.6256 51.0557 78.5117L78.7506 106.103C81.6475 108.99 81.6475 113.669 78.7506 116.555Z" fill="url(#paint3_linear_1_409)"/>
<path d="M135.399 93.1438C138.296 96.0298 142.993 96.0298 145.89 93.1438C148.787 90.2577 148.787 85.5784 145.89 82.6924C142.993 79.8063 138.296 79.8063 135.399 82.6924C132.503 85.5784 132.503 90.2577 135.399 93.1438Z" fill="url(#paint4_linear_1_409)"/>
<path d="M95.9551 133.695C93.0582 136.581 88.3614 136.581 85.4646 133.695C82.5677 130.809 82.5677 126.13 85.4646 123.244C88.3614 120.358 93.0582 120.358 95.9551 123.244C98.8519 126.13 98.8519 130.809 95.9551 133.695Z" fill="url(#paint5_linear_1_409)"/>
<path d="M42.6632 34.616C39.7663 37.502 35.0695 37.502 32.1726 34.616C29.2758 31.7299 29.2758 27.0506 32.1726 24.1646C35.0695 21.2785 39.7663 21.2785 42.6632 24.1646C45.56 27.0506 45.56 31.7299 42.6632 34.616Z" fill="url(#paint6_linear_1_409)"/>
</g>
<defs>
<filter id="filter0_d_1_409" x="0" y="0" width="181" height="191" filterUnits="userSpaceOnUse" color-interpolation-filters="sRGB">
<feFlood flood-opacity="0" result="BackgroundImageFix"/>
<feColorMatrix in="SourceAlpha" type="matrix" values="0 0 0 0 0 0 0 0 0 0 0 0 0 0 0 0 0 0 127 0" result="hardAlpha"/>
<feOffset dy="8"/>
<feGaussianBlur stdDeviation="15"/>
<feColorMatrix type="matrix" values="0 0 0 0 0 0 0 0 0 0 0 0 0 0 0 0 0 0 0.25 0"/>
<feBlend mode="normal" in2="BackgroundImageFix" result="effect1_dropShadow_1_409"/>
<feBlend mode="normal" in="SourceGraphic" in2="effect1_dropShadow_1_409" result="shape"/>
</filter>
<linearGradient id="paint0_linear_1_409" x1="196.5" y1="179" x2="1.5636" y2="190.163" gradientUnits="userSpaceOnUse">
<stop stop-color="#FF6A56"/>
<stop offset="1" stop-color="#FDAF4D"/>
</linearGradient>
<linearGradient id="paint1_linear_1_409" x1="196.5" y1="179" x2="1.5636" y2="190.163" gradientUnits="userSpaceOnUse">
<stop stop-color="#FF6A56"/>
<stop offset="1" stop-color="#FDAF4D"/>
</linearGradient>
<linearGradient id="paint2_linear_1_409" x1="196.5" y1="179" x2="1.5636" y2="190.163" gradientUnits="userSpaceOnUse">
<stop stop-color="#FF6A56"/>
<stop offset="1" stop-color="#FDAF4D"/>
</linearGradient>
<linearGradient id="paint3_linear_1_409" x1="196.5" y1="179" x2="1.5636" y2="190.163" gradientUnits="userSpaceOnUse">
<stop stop-color="#FF6A56"/>
<stop offset="1" stop-color="#FDAF4D"/>
</linearGradient>
<linearGradient id="paint4_linear_1_409" x1="196.5" y1="179" x2="1.5636" y2="190.163" gradientUnits="userSpaceOnUse">
<stop stop-color="#FF6A56"/>
<stop offset="1" stop-color="#FDAF4D"/>
</linearGradient>
<linearGradient id="paint5_linear_1_409" x1="196.5" y1="179" x2="1.5636" y2="190.163" gradientUnits="userSpaceOnUse">
<stop stop-color="#FF6A56"/>
<stop offset="1" stop-color="#FDAF4D"/>
</linearGradient>
<linearGradient id="paint6_linear_1_409" x1="196.5" y1="179" x2="1.5636" y2="190.163" gradientUnits="userSpaceOnUse">
<stop stop-color="#FF6A56"/>
<stop offset="1" stop-color="#FDAF4D"/>
</linearGradient>
</defs>
</svg>
